# xmcd CD database file
#
# Track frame offsets:
#	150
#	23065
#	45820
#
# Disc length: 846 seconds
#
# Revision: 1
# Processed by: cddbd v1.5.2PL0 Copyright (c) Steve Scherf et al.
# Submitted via: CDex 1.70beta2
#
DISCID=13034c03
DTITLE=Terra Rosa - 火の中に影
DYEAR=1990
DGENRE=J-Metal
TTITLE0=火の中に影
TTITLE1=Craggy Rhymester
TTITLE2=Warble Innocent
EXTD=YEAR: 1990
EXTT0=
EXTT1=
EXTT2=
PLAYORDER=
